<svg id="visual" viewBox="0 0 900 600" width="900" height="600" xmlns="http://www.w3.org/2000/svg" xmlns:xlink="http://www.w3.org/1999/xlink" version="1.1"><g transform="translate(523.2970771823143 301.79852894772637)"><path d="M136.3 -206.2C158.6 -171.4 146.2 -107.4 145.4 -59.2C144.6 -10.9 155.5 21.6 157 61.4C158.4 101.3 150.3 148.5 122.6 182.7C94.8 216.9 47.4 237.9 -11.8 254.1C-70.9 270.3 -141.9 281.6 -170.5 247.7C-199.2 213.9 -185.7 134.9 -209.7 66.8C-233.6 -1.3 -295.1 -58.6 -302.9 -118.1C-310.6 -177.6 -264.7 -239.3 -205.2 -261.9C-145.8 -284.6 -72.9 -268.3 -7.9 -257.4C57 -246.5 114 -240.9 136.3 -206.2" fill="#E12454"></path></g></svg>