<svg id="visual" viewBox="0 0 900 600" width="900" height="600" xmlns="http://www.w3.org/2000/svg" xmlns:xlink="http://www.w3.org/1999/xlink" version="1.1"><rect x="0" y="0" width="900" height="600" fill="#C7A3F9"></rect><path d="M0 452L37.5 469C75 486 150 520 225 536.3C300 552.7 375 551.3 450 544.2C525 537 600 524 675 505.8C750 487.7 825 464.3 862.5 452.7L900 441L900 601L862.5 601C825 601 750 601 675 601C600 601 525 601 450 601C375 601 300 601 225 601C150 601 75 601 37.5 601L0 601Z" fill="#6600EB" stroke-linecap="round" stroke-linejoin="miter"></path></svg>